<svg width="402" height="154" viewBox="0 0 402 154" fill="none" xmlns="http://www.w3.org/2000/svg">
<path d="M194.578 69.63C191.26 69.63 188.194 69.084 185.38 67.992C182.608 66.858 180.193 65.283 178.135 63.267C176.077 61.209 174.481 58.794 173.347 56.022C172.255 53.208 171.709 50.121 171.709 46.761C171.709 43.485 172.297 40.461 173.473 37.689C174.649 34.917 176.266 32.523 178.324 30.507C180.424 28.449 182.881 26.853 185.695 25.719C188.551 24.585 191.659 24.018 195.019 24.018C197.119 24.018 199.177 24.291 201.193 24.837C203.209 25.383 205.078 26.202 206.8 27.294C208.564 28.344 210.076 29.604 211.336 31.074L204.784 38.571C203.902 37.647 202.957 36.849 201.949 36.177C200.983 35.463 199.912 34.917 198.736 34.539C197.56 34.161 196.3 33.972 194.956 33.972C193.276 33.972 191.68 34.287 190.168 34.917C188.698 35.505 187.396 36.366 186.262 37.5C185.17 38.592 184.309 39.936 183.679 41.532C183.049 43.128 182.734 44.913 182.734 46.887C182.734 48.819 183.049 50.583 183.679 52.179C184.309 53.733 185.191 55.077 186.325 56.211C187.459 57.345 188.824 58.206 190.42 58.794C192.058 59.382 193.864 59.676 195.838 59.676C197.182 59.676 198.463 59.487 199.681 59.109C200.899 58.731 202.012 58.227 203.02 57.597C204.07 56.925 204.994 56.169 205.792 55.329L210.958 63.519C209.908 64.695 208.501 65.745 206.737 66.669C205.015 67.593 203.083 68.328 200.941 68.874C198.841 69.378 196.72 69.63 194.578 69.63ZM232.966 69.63C229.48 69.63 226.372 68.874 223.642 67.362C220.954 65.85 218.812 63.792 217.216 61.188C215.662 58.584 214.885 55.602 214.885 52.242C214.885 48.882 215.662 45.9 217.216 43.296C218.812 40.692 220.954 38.634 223.642 37.122C226.372 35.61 229.48 34.854 232.966 34.854C236.452 34.854 239.539 35.61 242.227 37.122C244.957 38.634 247.099 40.692 248.653 43.296C250.207 45.9 250.984 48.882 250.984 52.242C250.984 55.602 250.207 58.584 248.653 61.188C247.099 63.792 244.957 65.85 242.227 67.362C239.539 68.874 236.452 69.63 232.966 69.63ZM232.966 60.936C234.478 60.936 235.822 60.558 236.998 59.802C238.174 59.046 239.098 58.017 239.77 56.715C240.442 55.413 240.757 53.922 240.715 52.242C240.757 50.562 240.442 49.071 239.77 47.769C239.098 46.425 238.174 45.375 236.998 44.619C235.822 43.863 234.478 43.485 232.966 43.485C231.454 43.485 230.089 43.863 228.871 44.619C227.695 45.375 226.771 46.425 226.099 47.769C225.427 49.071 225.112 50.562 225.154 52.242C225.112 53.922 225.427 55.413 226.099 56.715C226.771 58.017 227.695 59.046 228.871 59.802C230.089 60.558 231.454 60.936 232.966 60.936ZM255.637 69V63.204L273.403 40.398V43.737H255.637V35.547H283.357V41.595L266.536 63.708L266.284 60.81H283.924V69H255.637ZM295.819 83.49L303.442 65.535L303.568 70.701L287.44 35.547H298.843L305.899 52.368C306.277 53.208 306.634 54.111 306.97 55.077C307.306 56.043 307.558 56.967 307.726 57.849L306.34 58.668C306.592 58.038 306.865 57.261 307.159 56.337C307.495 55.371 307.852 54.342 308.23 53.25L314.404 35.547H325.87L311.632 69L305.836 83.49H295.819ZM203.51 133.85C199.033 133.85 194.897 133.113 191.1 131.64C187.36 130.11 184.102 127.985 181.325 125.265C178.548 122.488 176.395 119.23 174.865 115.49C173.392 111.693 172.655 107.528 172.655 102.995C172.655 98.575 173.448 94.495 175.035 90.755C176.622 87.015 178.803 83.785 181.58 81.065C184.413 78.2883 187.728 76.135 191.525 74.605C195.378 73.075 199.572 72.31 204.105 72.31C206.938 72.31 209.715 72.6783 212.435 73.415C215.155 74.1517 217.677 75.2567 220 76.73C222.38 78.1467 224.42 79.8467 226.12 81.83L217.28 91.945C216.09 90.6983 214.815 89.6217 213.455 88.715C212.152 87.7517 210.707 87.015 209.12 86.505C207.533 85.995 205.833 85.74 204.02 85.74C201.753 85.74 199.6 86.165 197.56 87.015C195.577 87.8083 193.82 88.97 192.29 90.5C190.817 91.9733 189.655 93.7867 188.805 95.94C187.955 98.0933 187.53 100.502 187.53 103.165C187.53 105.772 187.955 108.152 188.805 110.305C189.655 112.402 190.845 114.215 192.375 115.745C193.905 117.275 195.747 118.437 197.9 119.23C200.11 120.023 202.547 120.42 205.21 120.42C207.023 120.42 208.752 120.165 210.395 119.655C212.038 119.145 213.54 118.465 214.9 117.615C216.317 116.708 217.563 115.688 218.64 114.555L225.61 125.605C224.193 127.192 222.295 128.608 219.915 129.855C217.592 131.102 214.985 132.093 212.095 132.83C209.262 133.51 206.4 133.85 203.51 133.85ZM250.714 133.765C246.917 133.765 243.517 132.773 240.514 130.79C237.567 128.75 235.215 125.973 233.459 122.46C231.702 118.89 230.824 114.867 230.824 110.39C230.824 105.8 231.702 101.748 233.459 98.235C235.215 94.7217 237.624 91.9733 240.684 89.99C243.744 87.95 247.229 86.93 251.139 86.93C253.292 86.93 255.247 87.2417 257.004 87.865C258.817 88.4883 260.404 89.3667 261.764 90.5C263.124 91.5767 264.285 92.8517 265.249 94.325C266.212 95.7417 266.92 97.2717 267.374 98.915L264.569 98.575V87.865H278.084V133H264.314V122.12L267.374 122.035C266.92 123.622 266.184 125.123 265.164 126.54C264.144 127.957 262.897 129.203 261.424 130.28C259.95 131.357 258.307 132.207 256.494 132.83C254.68 133.453 252.754 133.765 250.714 133.765ZM254.454 122.29C256.55 122.29 258.364 121.808 259.894 120.845C261.424 119.882 262.614 118.522 263.464 116.765C264.314 114.952 264.739 112.827 264.739 110.39C264.739 107.953 264.314 105.857 263.464 104.1C262.614 102.287 261.424 100.898 259.894 99.935C258.364 98.915 256.55 98.405 254.454 98.405C252.414 98.405 250.629 98.915 249.099 99.935C247.625 100.898 246.464 102.287 245.614 104.1C244.764 105.857 244.339 107.953 244.339 110.39C244.339 112.827 244.764 114.952 245.614 116.765C246.464 118.522 247.625 119.882 249.099 120.845C250.629 121.808 252.414 122.29 254.454 122.29ZM305.299 133.85C300.879 133.85 296.969 133.142 293.569 131.725C290.225 130.308 287.562 128.41 285.579 126.03L293.824 118.89C295.58 120.647 297.564 121.95 299.774 122.8C301.984 123.593 304.08 123.99 306.064 123.99C306.857 123.99 307.565 123.905 308.189 123.735C308.812 123.565 309.322 123.338 309.719 123.055C310.172 122.715 310.512 122.347 310.739 121.95C310.965 121.497 311.079 120.987 311.079 120.42C311.079 119.287 310.569 118.408 309.549 117.785C309.039 117.502 308.189 117.162 306.999 116.765C305.809 116.368 304.279 115.915 302.409 115.405C299.745 114.725 297.422 113.932 295.439 113.025C293.512 112.062 291.925 110.957 290.679 109.71C289.545 108.52 288.667 107.217 288.044 105.8C287.42 104.327 287.109 102.683 287.109 100.87C287.109 98.7733 287.59 96.875 288.554 95.175C289.574 93.475 290.905 92.0017 292.549 90.755C294.249 89.5083 296.175 88.5733 298.329 87.95C300.539 87.27 302.805 86.93 305.129 86.93C307.622 86.93 310.002 87.2133 312.269 87.78C314.535 88.3467 316.632 89.14 318.559 90.16C320.542 91.18 322.299 92.3983 323.829 93.815L316.689 101.805C315.669 100.842 314.507 99.9917 313.204 99.255C311.957 98.4617 310.654 97.8383 309.294 97.385C307.934 96.9317 306.687 96.705 305.554 96.705C304.704 96.705 303.939 96.79 303.259 96.96C302.635 97.0733 302.097 97.3 301.644 97.64C301.19 97.9233 300.85 98.2917 300.624 98.745C300.397 99.1417 300.284 99.6233 300.284 100.19C300.284 100.757 300.425 101.295 300.709 101.805C301.049 102.315 301.502 102.74 302.069 103.08C302.635 103.42 303.542 103.817 304.789 104.27C306.035 104.667 307.735 105.177 309.889 105.8C312.552 106.537 314.847 107.358 316.774 108.265C318.7 109.172 320.23 110.248 321.364 111.495C322.27 112.458 322.95 113.592 323.404 114.895C323.857 116.142 324.084 117.502 324.084 118.975C324.084 121.865 323.262 124.443 321.619 126.71C320.032 128.92 317.822 130.677 314.989 131.98C312.155 133.227 308.925 133.85 305.299 133.85ZM332.169 133V70.1H345.514V97.045L342.794 98.065C343.417 96.025 344.522 94.1833 346.109 92.54C347.752 90.84 349.707 89.48 351.974 88.46C354.24 87.44 356.62 86.93 359.114 86.93C362.514 86.93 365.375 87.6383 367.699 89.055C370.022 90.415 371.779 92.4833 372.969 95.26C374.159 97.98 374.754 101.323 374.754 105.29V133H361.069V106.395C361.069 104.582 360.814 103.08 360.304 101.89C359.794 100.7 359 99.8217 357.924 99.255C356.904 98.6317 355.629 98.3483 354.099 98.405C352.909 98.405 351.804 98.6033 350.784 99C349.764 99.34 348.885 99.8783 348.149 100.615C347.412 101.295 346.817 102.088 346.364 102.995C345.967 103.902 345.769 104.893 345.769 105.97V133H339.054C337.467 133 336.107 133 334.974 133C333.84 133 332.905 133 332.169 133ZM390.969 133.935C388.646 133.935 386.832 133.283 385.529 131.98C384.282 130.677 383.659 128.807 383.659 126.37C383.659 124.103 384.339 122.262 385.699 120.845C387.059 119.428 388.816 118.72 390.969 118.72C393.292 118.72 395.106 119.4 396.409 120.76C397.712 122.063 398.364 123.933 398.364 126.37C398.364 128.58 397.684 130.393 396.324 131.81C394.964 133.227 393.179 133.935 390.969 133.935Z" fill="#F49D1A"/>
<circle cx="77" cy="77" r="77" fill="#F49D1A"/>
<path d="M111.077 54.9661H100.196V45.9946C100.196 39.5946 96.9272 34.8111 92.4137 31.7888C88.0143 28.8428 82.3939 27.4999 76.9978 27.5C71.6018 27.5001 65.9814 28.8431 61.582 31.7892C57.0687 34.8117 53.8 39.5951 53.8 45.9951V54.9661H42.9234C38.2634 54.9661 34.5 58.8057 34.5 63.5243V91.2331C34.5 111.255 50.4615 127.5 70.1687 127.5H83.8313C103.538 127.5 119.5 111.255 119.5 91.2331V63.5243C119.5 58.8057 115.737 54.9661 111.077 54.9661ZM42.9234 62.8731H53.8V78.3096C53.8 80.4851 55.5363 82.2631 57.6958 82.2631C59.8553 82.2631 61.5915 80.4851 61.5915 78.3096V62.8731H92.4043V78.3096C92.4043 80.4851 94.1405 82.2631 96.3 82.2631C98.4595 82.2631 100.196 80.4851 100.196 78.3096V62.8731H111.077C111.418 62.8731 111.709 63.1567 111.709 63.5243V91.2331C111.709 106.904 99.2196 119.593 83.8313 119.593H70.1687C54.7804 119.593 42.2915 106.904 42.2915 91.2331V63.5243C42.2915 63.1567 42.5823 62.8731 42.9234 62.8731ZM92.4043 45.9946V54.9661H61.5915V45.9951C61.5915 42.6994 63.1499 40.2127 65.8734 38.3889C68.7124 36.4877 72.7432 35.4071 76.998 35.407C81.2528 35.407 85.2835 36.4874 88.1225 38.3885C90.8459 40.2122 92.4043 42.6988 92.4043 45.9946Z" fill="white" stroke="white" stroke-linecap="round"/>
</svg>
